<svg width="32" height="21" viewBox="0 0 32 21" fill="none" xmlns="http://www.w3.org/2000/svg">
<rect width="32" height="21" rx="4" fill="#FF0000"/>
<path d="M10.864 16.196C9.226 16.196 8.134 15.552 7.364 14.782L8.316 13.466C8.904 14.04 9.632 14.516 10.598 14.516C11.676 14.516 12.432 13.83 12.432 12.612C12.432 11.408 11.732 10.736 10.682 10.736C10.066 10.736 9.73 10.89 9.128 11.282L8.19 10.666L8.47 5.64H14.014V7.362H10.248L10.052 9.56C10.458 9.364 10.822 9.266 11.298 9.266C13.034 9.266 14.49 10.302 14.49 12.556C14.49 14.866 12.782 16.196 10.864 16.196ZM20.9701 16.196C18.1421 16.196 16.0001 14.32 16.0001 10.862C16.0001 7.446 18.2121 5.444 20.9701 5.444C22.4681 5.444 23.5041 6.088 24.1761 6.774L23.0701 8.09C22.5661 7.6 21.9781 7.222 21.0401 7.222C19.3181 7.222 18.1141 8.566 18.1141 10.792C18.1141 13.046 19.1501 14.404 21.1801 14.404C21.6841 14.404 22.1881 14.264 22.4821 14.012V11.968H20.6481V10.274H24.3301V14.95C23.6301 15.636 22.4121 16.196 20.9701 16.196Z" fill="white"/>
</svg>
