<svg width="46" height="46" viewBox="0 0 46 46" fill="none" xmlns="http://www.w3.org/2000/svg">
<circle cx="23" cy="23" r="23" fill="#0DCDD6"/>
<path fill-rule="evenodd" clip-rule="evenodd" d="M17.9981 12.1493H20.705C20.8504 10.9377 21.8142 10 22.9835 10C24.1453 10 25.104 10.9243 25.259 12.1242L27.9999 12.1493C28.1397 12.1493 28.2521 12.2635 28.2521 12.4064V15.2343C28.2522 15.268 28.2458 15.3014 28.2332 15.3325C28.2205 15.3637 28.202 15.392 28.1785 15.4158C28.1551 15.4397 28.1272 15.4586 28.0966 15.4714C28.0659 15.4843 28.0331 15.4909 27.9999 15.4908H18.0011C17.8634 15.4908 17.7479 15.3767 17.7479 15.2343V12.4064C17.7474 12.3727 17.7535 12.3393 17.7658 12.3081C17.7781 12.2769 17.7965 12.2484 17.8198 12.2245C17.8431 12.2006 17.8709 12.1816 17.9015 12.1687C17.9321 12.1558 17.965 12.1492 17.9981 12.1493ZM20.3505 20.6177C19.9672 20.6177 19.6562 20.3021 19.6562 19.9124C19.6562 19.5232 19.9672 19.2076 20.3505 19.2076H28.0262C28.4096 19.2076 28.7211 19.5232 28.7211 19.9124C28.7211 20.3021 28.4096 20.6177 28.0262 20.6177H20.3505ZM20.3505 24.6522C19.9672 24.6522 19.6562 24.336 19.6562 23.9469C19.6562 23.5577 19.9672 23.2416 20.3505 23.2416H28.0262C28.4096 23.2416 28.7211 23.5577 28.7211 23.9469C28.7211 24.336 28.4096 24.6522 28.0262 24.6522H20.3505ZM18.0376 27.1948C18.4666 27.1948 18.8135 27.5474 18.8135 27.9824C18.8135 28.4178 18.4666 28.7704 18.0376 28.7704C17.6086 28.7704 17.2617 28.4178 17.2617 27.9824C17.2617 27.5474 17.6086 27.1948 18.0376 27.1948ZM20.3505 28.6877C19.9672 28.6877 19.6562 28.3715 19.6562 27.9824C19.6562 27.5932 19.9672 27.277 20.3505 27.277H27.9999C28.3833 27.277 28.7211 27.5932 28.7211 27.9824C28.7211 28.3715 28.3833 28.6877 27.9999 28.6877H20.3505ZM18.0376 23.1593C18.4666 23.1593 18.8135 23.512 18.8135 23.9474C18.8135 24.3823 18.4666 24.7349 18.0376 24.7349C17.6086 24.7349 17.2617 24.3823 17.2617 23.9474C17.2617 23.512 17.6086 23.1593 18.0376 23.1593ZM18.0376 19.1248C18.4666 19.1248 18.8135 19.477 18.8135 19.9124C18.8135 20.3478 18.4666 20.7 18.0376 20.7C17.6086 20.7 17.2617 20.3478 17.2617 19.9124C17.2617 19.477 17.6086 19.1248 18.0376 19.1248ZM15.242 13.234H16.5284V14.5634H15.242C14.9858 14.5634 14.7513 14.6699 14.5826 14.8405C14.415 15.0117 14.3097 15.2492 14.3097 15.5093V32.7232C14.3097 32.9828 14.4155 33.2208 14.5831 33.3925C14.7523 33.5632 14.9868 33.6701 15.242 33.6701H30.757C30.9995 33.6701 31.2219 33.5745 31.387 33.4192L31.4143 33.3904C31.584 33.2182 31.6898 32.9812 31.6898 32.7232V15.5093C31.6898 15.2497 31.5855 15.0127 31.4174 14.8421C31.2487 14.6709 31.0137 14.5634 30.757 14.5634H29.4711V13.234H30.757C31.3728 13.234 31.9324 13.4911 32.3381 13.9018C32.7463 14.3157 33 14.8858 33 15.5093V32.7232C33 33.3488 32.7468 33.9184 32.3406 34.3307L32.2955 34.3723C31.8924 34.7604 31.349 35 30.757 35H15.242C14.6282 35 14.0676 34.743 13.6609 34.3312C13.2532 33.9163 13 33.3478 13 32.7232V15.5093C13 14.8853 13.2527 14.3167 13.6579 13.9044C14.0666 13.4906 14.6272 13.234 15.242 13.234ZM22.9572 11.0996C23.6176 11.0996 24.1534 11.6435 24.1534 12.3139C24.1534 12.9852 23.6176 13.5291 22.9572 13.5291C22.2963 13.5291 21.7605 12.9852 21.7605 12.3139C21.7605 11.6435 22.2963 11.0996 22.9572 11.0996Z" fill="white"/>
</svg>
