<svg width="46" height="46" viewBox="0 0 46 46" fill="none" xmlns="http://www.w3.org/2000/svg">
<circle cx="23" cy="23" r="22" stroke="#0DCDD6" stroke-width="2"/>
<path fill-rule="evenodd" clip-rule="evenodd" d="M29.2901 25.6149C32.4447 25.6149 35 28.1645 35 31.3077C35 34.4527 32.4431 37 29.2901 37C26.1354 37 23.5801 34.451 23.5801 31.3077C23.5801 28.1628 26.137 25.6149 29.2901 25.6149ZM14.2907 12.2434H15.6042V13.5776H14.2907C14.0415 13.5776 13.8131 13.6739 13.6429 13.8298L13.6182 13.8566C13.4459 14.0279 13.3383 14.266 13.3383 14.5265V31.7931C13.3383 32.0531 13.4459 32.2911 13.6182 32.4629C13.79 32.6353 14.0288 32.7426 14.2907 32.7426H22.1195C22.2117 33.2044 22.3484 33.651 22.5235 34.0767H14.2907C13.6643 34.0767 13.0907 33.819 12.6757 33.4058C12.2591 32.9926 12 32.4208 12 31.7931V14.5265C12 13.8982 12.258 13.3269 12.6724 12.9138L12.7158 12.8744C13.1275 12.4842 13.683 12.2434 14.2907 12.2434ZM30.624 24.1385V14.5265C30.624 14.2671 30.5164 14.029 30.3429 13.8566C30.1722 13.6843 29.9329 13.5776 29.671 13.5776H28.3585V12.2434H29.671C30.2995 12.2434 30.871 12.5017 31.286 12.9143C31.7037 13.328 31.9622 13.9004 31.9622 14.5265V24.5194C31.5346 24.3519 31.0867 24.2233 30.624 24.1385ZM19.2749 23.6969C18.8835 23.6969 18.5657 23.38 18.5657 22.9899C18.5657 22.5997 18.8835 22.2823 19.2749 22.2823H27.1152C27.5066 22.2823 27.8244 22.5997 27.8244 22.9899C27.8244 23.38 27.5066 23.6969 27.1152 23.6969H19.2749ZM16.9129 22.2002C17.3509 22.2002 17.7055 22.5537 17.7055 22.9904C17.7055 23.4266 17.3509 23.7801 16.9129 23.7801C16.4754 23.7801 16.1202 23.4266 16.1202 22.9904C16.1202 22.5537 16.4754 22.2002 16.9129 22.2002ZM16.9129 26.5025C17.3509 26.5025 17.7055 26.856 17.7055 27.2927C17.7055 27.7289 17.3509 28.0824 16.9129 28.0824C16.4754 28.0824 16.1202 27.7289 16.1202 27.2927C16.1202 26.856 16.4754 26.5025 16.9129 26.5025ZM19.2755 27.9992C18.8841 27.9992 18.5657 27.6824 18.5657 27.2922C18.5657 26.902 18.8841 26.5846 19.2755 26.5846H23.7196C23.3496 27.0178 23.0317 27.4925 22.7721 27.9992H19.2755ZM16.9129 17.8979C17.3509 17.8979 17.7055 18.2514 17.7055 18.6881C17.7055 19.1248 17.3509 19.4783 16.9129 19.4783C16.4754 19.4783 16.1202 19.1248 16.1202 18.6881C16.1202 18.2514 16.4754 17.8979 16.9129 17.8979ZM19.2749 19.3957C18.8835 19.3957 18.5657 19.0783 18.5657 18.6881C18.5657 18.2979 18.8835 17.9811 19.2749 17.9811H27.1152C27.5066 17.9811 27.8244 18.2979 27.8244 18.6881C27.8244 19.0783 27.5066 19.3957 27.1152 19.3957H19.2749ZM17.105 11.1561H19.6372C19.786 9.94014 20.7702 9 21.9641 9C23.1509 9 24.1296 9.92755 24.2883 11.1309L26.855 11.1561C26.9983 11.1561 27.113 11.2704 27.113 11.4138V14.2506C27.113 14.3929 26.9983 14.5078 26.855 14.5078H17.1078C16.9672 14.5078 16.8492 14.3929 16.8492 14.2506V11.4138C16.8487 11.3801 16.8549 11.3465 16.8676 11.3152C16.8802 11.2839 16.899 11.2554 16.9228 11.2314C16.9466 11.2074 16.975 11.1883 17.0063 11.1754C17.0376 11.1625 17.0711 11.1559 17.105 11.1561ZM21.9372 10.1027C22.6124 10.1027 23.1591 10.6488 23.1591 11.3213C23.1591 11.9944 22.6124 12.5395 21.9372 12.5395C21.2626 12.5395 20.7153 11.9944 20.7153 11.3213C20.7153 10.6488 21.2626 10.1027 21.9372 10.1027ZM28.4359 30.4557H30.1453H31.5187C31.7707 30.4541 31.9502 30.4305 31.9458 30.7425L31.9337 31.7515C31.9353 32.0777 31.8316 32.1641 31.5258 32.1609H28.4359H27.0548C26.748 32.1641 26.6448 32.0777 26.6464 31.7515L26.6344 30.7425C26.6294 30.4305 26.81 30.4541 27.062 30.4557H28.4359Z" fill="#0DCDD6"/>
</svg>
